# xmcd
#
# Track frame offsets: 
#        150
#        32915
#        51717
#        68596
#        94154
#        115110
#        146783
#        171197
#        200283
#
# Disc length: 2878 seconds
#
# Revision: 0
# Processed by: cddbd v1.5.2PL0 Copyright (c) Steve Scherf et al.
# Submitted via: ExactAudioCopy v1.0b3
#
DISCID=830b3c09
DTITLE=Piotr Ruciński - Let's Play A Blues
DYEAR=2016
DGENRE=Blues
TTITLE0=Hotel Grand
TTITLE1=One note blues
TTITLE2=Pięć czwartych
TTITLE3=Solo na dnie
TTITLE4=Ostatnia knajpa zamknięta
TTITLE5=Śmierć ptaka
TTITLE6=Wielkie koło
TTITLE7=Kaziu zakochaj się
TTITLE8=Deep river blues
EXTD=
EXTT0=
EXTT1=
EXTT2=
EXTT3=
EXTT4=
EXTT5=
EXTT6=
EXTT7=
EXTT8=
PLAYORDER=
